<?xml version="1.0" encoding="utf-8"?>
<!-- Generator: Adobe Illustrator 14.0.0, SVG Export Plug-In . SVG Version: 6.00 Build 43363)  -->
<!DOCTYPE svg PUBLIC "-//W3C//DTD SVG 1.1//EN" "http://www.w3.org/Graphics/SVG/1.1/DTD/svg11.dtd">
<svg version="1.1" id="Layer_1" xmlns="http://www.w3.org/2000/svg" xmlns:xlink="http://www.w3.org/1999/xlink" x="0px" y="0px"
	 width="43.516px" height="109.192px" viewBox="0 0 43.516 109.192" enable-background="new 0 0 43.516 109.192"
	 xml:space="preserve">
<g>
	<g>
		<path fill="#8DC641" d="M41.192,100.621c0-0.732-0.599-1.331-1.331-1.331h-18.8c-0.732,0-1.331,0.599-1.331,1.331v5.116
			c0,0.732,0.599,1.331,1.331,1.331h18.8c0.732,0,1.331-0.599,1.331-1.331V100.621z"/>
	</g>
	<g>
		<path fill="#8DC641" d="M41.192,89.833c0-0.732-0.599-1.331-1.331-1.331h-18.8c-0.732,0-1.331,0.599-1.331,1.331v5.116
			c0,0.732,0.599,1.331,1.331,1.331h18.8c0.732,0,1.331-0.599,1.331-1.331V89.833z"/>
	</g>
	<g>
		<path fill="#8DC641" d="M41.192,79.045c0-0.732-0.599-1.331-1.331-1.331h-18.8c-0.732,0-1.331,0.599-1.331,1.331v5.115
			c0,0.732,0.599,1.331,1.331,1.331h18.8c0.732,0,1.331-0.599,1.331-1.331V79.045z"/>
	</g>
	<g>
		<path fill="#8DC641" d="M41.192,68.258c0-0.732-0.599-1.331-1.331-1.331h-18.8c-0.732,0-1.331,0.599-1.331,1.331v5.114
			c0,0.732,0.599,1.331,1.331,1.331h18.8c0.732,0,1.331-0.599,1.331-1.331V68.258z"/>
	</g>
	<g>
		<path fill="#8DC641" d="M41.192,57.471c0-0.732-0.599-1.331-1.331-1.331h-18.8c-0.732,0-1.331,0.599-1.331,1.331v5.115
			c0,0.732,0.599,1.331,1.331,1.331h18.8c0.732,0,1.331-0.599,1.331-1.331V57.471z"/>
	</g>
	<g>
		<path fill="#8DC641" d="M41.192,46.682c0-0.732-0.599-1.331-1.331-1.331h-18.8c-0.732,0-1.331,0.599-1.331,1.331v5.115
			c0,0.732,0.599,1.331,1.331,1.331h18.8c0.732,0,1.331-0.599,1.331-1.331V46.682z"/>
	</g>
	<g>
		<path fill="#8DC641" d="M41.192,35.895c0-0.732-0.599-1.331-1.331-1.331h-18.8c-0.732,0-1.331,0.599-1.331,1.331v5.116
			c0,0.732,0.599,1.331,1.331,1.331h18.8c0.732,0,1.331-0.599,1.331-1.331V35.895z"/>
	</g>
	<g>
		<path fill="#D92A27" d="M41.192,25.109c0-0.732-0.599-1.331-1.331-1.331h-18.8c-0.732,0-1.331,0.599-1.331,1.331v5.115
			c0,0.732,0.599,1.331,1.331,1.331h18.8c0.732,0,1.331-0.599,1.331-1.331V25.109z"/>
	</g>
	<g>
		<path fill="#D92A27" d="M41.192,14.32c0-0.732-0.599-1.331-1.331-1.331h-18.8c-0.732,0-1.331,0.599-1.331,1.331v5.116
			c0,0.732,0.599,1.331,1.331,1.331h18.8c0.732,0,1.331-0.599,1.331-1.331V14.32z"/>
	</g>
	<g>
		<path fill="#C0BFBF" d="M41.192,3.533c0-0.732-0.599-1.331-1.331-1.331h-18.8c-0.732,0-1.331,0.599-1.331,1.331v5.116
			c0,0.732,0.599,1.331,1.331,1.331h18.8c0.732,0,1.331-0.599,1.331-1.331V3.533z"/>
	</g>
</g>
<g opacity="0.8">
	<rect x="2.707" y="2.31" fill="#DCDBDB" width="10.442" height="10.441"/>
	<rect x="3.862" y="14.108" fill="#DCDBDB" width="9.297" height="10.441"/>
	<rect x="5.018" y="25.905" fill="#DCDBDB" width="8.151" height="10.441"/>
	<rect x="6.172" y="37.703" fill="#DCDBDB" width="7.006" height="10.441"/>
	<rect x="7.328" y="49.5" fill="#DCDBDB" width="5.861" height="10.441"/>
	<rect x="8.483" y="61.298" fill="#DCDBDB" width="4.715" height="10.44"/>
	<rect x="9.638" y="73.096" fill="#DCDBDB" width="3.57" height="10.44"/>
	<rect x="10.793" y="84.893" fill="#DCDBDB" width="2.425" height="10.44"/>
	<rect x="11.948" y="96.691" fill="#DCDBDB" width="1.279" height="10.44"/>
</g>
</svg>
