<?xml version="1.0" encoding="utf-8"?>
<!-- Generator: Adobe Illustrator 14.0.0, SVG Export Plug-In . SVG Version: 6.00 Build 43363)  -->
<!DOCTYPE svg PUBLIC "-//W3C//DTD SVG 1.1//EN" "http://www.w3.org/Graphics/SVG/1.1/DTD/svg11.dtd">
<svg version="1.1" id="Layer_1" xmlns="http://www.w3.org/2000/svg" xmlns:xlink="http://www.w3.org/1999/xlink" x="0px" y="0px"
	 width="115.963px" height="27.606px" viewBox="0 0 115.963 27.606" enable-background="new 0 0 115.963 27.606"
	 xml:space="preserve">
<g>
	<polygon fill="#FFFFFF" points="2.886,16.539 9.186,24.797 21.156,2.589 	"/>
	<polygon opacity="0.7" fill="#FFFFFF" points="21.156,2.589 4.718,11.515 7.697,18.55 	"/>
	<polygon opacity="0.7" fill="#FFFFFF" points="20.493,2.266 5.748,6.272 9.298,13.413 	"/>
	<g>
		<path fill="#FFFFFF" d="M18.829,20.143l0.922-0.132l3.93-10.951h2.656l3.904,10.951l0.923,0.132v1.514h-4.401v-1.514l0.896-0.156
			l-0.568-1.73H22.9l-0.566,1.73l0.896,0.156v1.514h-4.402V20.143z M23.515,16.397h2.965l-1.456-4.438h-0.052L23.515,16.397z"/>
		<path fill="#FFFFFF" d="M32.02,21.657v-1.514l1.375-0.261v-9.037l-1.375-0.26V9.061h1.375h2.591h1.383v1.525l-1.383,0.26v8.872
			h3.647l0.123-1.583h1.98v3.523H32.02z"/>
		<path fill="#FFFFFF" d="M53.008,20.378c-0.628,0.493-1.156,0.586-1.964,0.936c-0.807,0.35-1.713,0.521-2.71,0.521
			c-1.736,0-3.157-0.583-4.262-1.755c-1.105-1.171-1.661-2.671-1.661-4.507v-0.423c0-1.826,0.554-3.331,1.652-4.509
			c1.101-1.173,2.524-1.762,4.271-1.762c0.998,0,1.899,0.179,2.706,0.533c0.803,0.353,1.469,0.822,1.998,1.405v2.494H51.11
			l-0.268-1.678c-0.253-0.25-0.576-0.445-0.962-0.59c-0.386-0.145-0.842-0.216-1.371-0.216c-1.126,0-1.99,0.4-2.596,1.192
			c-0.607,0.797-0.909,1.837-0.909,3.114v0.441c0,1.283,0.299,2.322,0.904,3.124c0.603,0.801,1.455,1.203,2.556,1.203
			c0.507,0,1.474-0.032,1.899-0.176c0.421-0.144,1.384-0.408,1.718-0.615L53.008,20.378z"/>
		<path fill="#FFFFFF" d="M66.039,15.455c0,1.845-0.542,3.371-1.624,4.574c-1.08,1.206-2.5,1.807-4.251,1.807
			c-1.745,0-3.156-0.602-4.23-1.807c-1.073-1.203-1.61-2.729-1.61-4.574v-0.192c0-1.833,0.535-3.355,1.606-4.567
			c1.073-1.208,2.48-1.815,4.226-1.815c1.751,0,3.17,0.608,4.256,1.815c1.084,1.212,1.627,2.735,1.627,4.567V15.455z M63.457,15.248
			c0-1.304-0.278-2.362-0.837-3.172c-0.555-0.816-1.376-1.224-2.465-1.224c-1.09,0-1.9,0.405-2.437,1.213
			c-0.536,0.807-0.803,1.868-0.803,3.184v0.208c0,1.323,0.271,2.394,0.813,3.204c0.542,0.811,1.353,1.218,2.435,1.218
			c1.093,0,1.916-0.407,2.467-1.218c0.552-0.81,0.826-1.881,0.826-3.204V15.248z"/>
		<path fill="#FFFFFF" d="M76.893,13.085h-1.94l-0.341-1.73c-0.224-0.139-0.551-0.262-0.982-0.362
			c-0.434-0.104-0.892-0.157-1.374-0.157c-0.714,0-1.262,0.145-1.649,0.438c-0.388,0.289-0.583,0.665-0.583,1.126
			c0,0.428,0.206,0.775,0.608,1.051c0.406,0.274,1.106,0.563,2.099,0.87c1.428,0.387,2.511,0.896,3.247,1.529
			c0.736,0.636,1.104,1.467,1.104,2.5c0,1.079-0.438,1.93-1.312,2.554c-0.877,0.622-2.032,0.931-3.464,0.931
			c-1.021,0-1.946-0.158-2.771-0.475c-0.828-0.316-1.515-0.753-2.066-1.314v-2.629h2.006l0.275,1.792
			c0.261,0.204,0.611,0.377,1.061,0.512c0.445,0.136,0.947,0.203,1.494,0.203c0.711,0,1.254-0.139,1.62-0.425
			c0.371-0.281,0.555-0.661,0.555-1.131c0-0.482-0.174-0.872-0.526-1.168c-0.353-0.292-0.971-0.57-1.851-0.83
			c-1.535-0.431-2.694-0.949-3.481-1.54c-0.785-0.591-1.178-1.405-1.178-2.438c0-1.02,0.442-1.858,1.33-2.504
			c0.886-0.648,2.002-0.98,3.344-0.999c0.996,0,1.901,0.146,2.716,0.442c0.819,0.293,1.505,0.686,2.059,1.174V13.085z"/>
		<path fill="#FFFFFF" d="M84.254,9.061c1.479,0,2.646,0.373,3.503,1.113c0.853,0.74,1.281,1.711,1.281,2.911
			c0,1.204-0.428,2.173-1.281,2.905c-0.857,0.731-2.024,1.1-3.503,1.1h-2.186v2.792l1.388,0.261v1.514h-5.354v-1.514l1.376-0.261
			v-9.037l-1.376-0.26V9.061h1.376H84.254z M82.068,15.143h2.186c0.722,0,1.265-0.191,1.638-0.574
			c0.369-0.384,0.552-0.874,0.552-1.467c0-0.605-0.183-1.107-0.552-1.502c-0.373-0.394-0.917-0.591-1.638-0.591h-2.186V15.143z"/>
		<path fill="#FFFFFF" d="M101.675,15.455c0,1.845-0.541,3.371-1.625,4.574c-1.082,1.206-2.5,1.807-4.249,1.807
			c-1.746,0-3.157-0.602-4.23-1.807c-1.075-1.203-1.61-2.729-1.61-4.574v-0.192c0-1.833,0.535-3.355,1.606-4.567
			c1.071-1.208,2.479-1.815,4.226-1.815c1.749,0,3.167,0.608,4.255,1.815c1.086,1.212,1.627,2.735,1.627,4.567V15.455z
			 M99.094,15.248c0-1.304-0.279-2.362-0.836-3.172c-0.555-0.816-1.376-1.224-2.465-1.224c-1.091,0-1.901,0.405-2.436,1.213
			c-0.538,0.807-0.803,1.868-0.803,3.184v0.208c0,1.323,0.27,2.394,0.81,3.204c0.542,0.811,1.355,1.218,2.438,1.218
			c1.093,0,1.915-0.407,2.465-1.218c0.552-0.81,0.827-1.881,0.827-3.204V15.248z"/>
		<path fill="#FFFFFF" d="M113.854,9.061v3.359h-1.987l-0.105-1.411h-2.379v8.874l1.384,0.261v1.514h-5.36v-1.514l1.384-0.261
			v-8.874h-2.372l-0.104,1.411h-1.98V9.061H113.854z"/>
	</g>
</g>
</svg>
